# xmcd
#
# Track frame offsets:
#	150
#	20507
#	42330
#	62742
#	81890
#	95450
#	119540
#	139535
#	158095
#	177480
#	205365
#	225485
#	252180
#
# Disc length: 3675 seconds
#
# Revision: 0
# Processed by: cddbd v1.5.1PL2 Copyright (c) Steve Scherf et al.
# Submitted via: audiograbber 1.80.04
#
DISCID=ac0e590d
DTITLE=John Mayall and Friends - Along For The Ride
DYEAR=2001
DGENRE=Blues
TTITLE0=A World Of Hurt
TTITLE1=Along For The Ride
TTITLE2=Put It Right Back
TTITLE3=That's Why I Love You So
TTITLE4=Yo Yo Man
TTITLE5=If I Don't Get Home
TTITLE6=Testify
TTITLE7=Early In The Morning
TTITLE8=Something About My Baby
TTITLE9=So Many Roads
TTITLE10=World War Blues
TTITLE11=California
TTITLE12=She Don't Play By The Rules
EXTD=(c)2001 Eagle Records\nFeaturning Gary Moore, Peter Green, Mich Fleetwood,
EXTD=Mick Taylor, Billy Fnon Curfman, Red Holloway, Billy Preston, Tom Canning
EXTD=, Jeff Healey, John McVide, Chris Rea ID3G
EXTT0=m Canning, Jeff Healey, John McVide, Chris Rea\n
EXTT1=
EXTT2=
EXTT3=
EXTT4=
EXTT5=
EXTT6=
EXTT7=
EXTT8=
EXTT9=
EXTT10=
EXTT11=
EXTT12=
PLAYORDER=
